<svg width="153" height="90" viewBox="0 0 153 90" fill="none" xmlns="http://www.w3.org/2000/svg">
<path d="M45.3125 90H27.4375V18.3125H0.5V0.375H72.1875V18.3125H45.3125V90Z" fill="#1F2D35"/>
<path d="M134.438 54.1875V36.25C134.438 33.7917 133.958 31.4792 133 29.3125C132.083 27.1042 130.812 25.1875 129.188 23.5625C127.562 21.9375 125.646 20.6667 123.438 19.75C121.271 18.7917 118.958 18.3125 116.5 18.3125C114.042 18.3125 111.708 18.7917 109.5 19.75C107.333 20.6667 105.438 21.9375 103.812 23.5625C102.188 25.1875 100.896 27.1042 99.9375 29.3125C99.0208 31.4792 98.5625 33.7917 98.5625 36.25V54.1875H134.438ZM152.375 90H134.438V72.0625H98.5625V90H80.6875V36.25C80.6875 31.2917 81.625 26.6458 83.5 22.3125C85.375 17.9375 87.9167 14.125 91.125 10.875C94.375 7.625 98.1667 5.0625 102.5 3.1875C106.875 1.3125 111.542 0.375 116.5 0.375C121.458 0.375 126.104 1.3125 130.438 3.1875C134.812 5.0625 138.625 7.625 141.875 10.875C145.125 14.125 147.688 17.9375 149.562 22.3125C151.438 26.6458 152.375 31.2917 152.375 36.25V90Z" fill="#EA5355"/>
</svg>
